<svg id="Layer_1" data-name="Layer 1" xmlns="http://www.w3.org/2000/svg" viewBox="0 0 512 512"><defs><style>.cls-1{fill:#141f38;}</style></defs><title>beer-1-glyph</title><path class="cls-1" d="M406.34,89.6a643.81,643.81,0,0,0-10.22-64.29A32,32,0,0,0,364.82,0H147.18a32,32,0,0,0-31.3,25.31A643.74,643.74,0,0,0,105.66,89.6Z"/><path class="cls-1" d="M103.52,115.2c-3.28,52.13.14,112.61,21.85,166.4,30.44,75.4,25,146.33,15.43,191.89A32,32,0,0,0,172.12,512H339.88a32,32,0,0,0,31.32-38.51c-9.59-45.57-15-116.49,15.43-191.89,21.72-53.79,25.13-114.27,21.85-166.4Z"/></svg>