<?xml version="1.0" encoding="UTF-8"?>
<svg width="700pt" height="700pt" version="1.1" viewBox="0 0 700 700" xmlns="http://www.w3.org/2000/svg" xmlns:xlink="http://www.w3.org/1999/xlink">
 <defs>
  <symbol id="w" overflow="visible">
   <path d="m0.03125 0h-0.015625-0.015625v-0.015625-0.015625h0.015625 0.015625-0.015625v0.015625 0.015625h0.015625v-0.015625z"/>
  </symbol>
  <symbol id="e" overflow="visible">
   <path d="m0.015625-0.015625v0.015625h-0.015625v-0.03125h0.015625v0.015625-0.015625z"/>
  </symbol>
  <symbol id="b" overflow="visible">
   <path d="m0.03125-0.015625h-0.015625v0.015625c0.0078125 0 0.015625-0.0039062 0.015625-0.015625v0.015625h-0.015625-0.015625v-0.015625l0.015625-0.015625v0.015625h0.015625z"/>
  </symbol>
  <symbol id="a" overflow="visible">
   <path d="m0.015625-0.015625v0.015625-0.015625zm0.015625 0v0.015625h-0.015625-0.015625v-0.015625h0.015625-0.015625v-0.015625h0.015625v0.015625h0.015625z"/>
  </symbol>
  <symbol id="d" overflow="visible">
   <path d="m0.015625-0.03125v0.015625 0.015625h-0.015625v-0.015625-0.015625z"/>
  </symbol>
  <symbol id="l" overflow="visible">
   <path d="m0.015625-0.015625v-0.015625h0.015625v0.03125h-0.015625-0.015625v-0.015625l0.015625-0.015625v0.015625zm0 0.015625v-0.015625 0.015625z"/>
  </symbol>
  <symbol id="k" overflow="visible">
   <path d="m0.015625 0v-0.015625 0.015625zm0-0.015625v-0.015625c0.0078125 0 0.015625 0.0078125 0.015625 0.015625v0.015625h-0.015625-0.015625v-0.03125h0.015625z"/>
  </symbol>
  <symbol id="j" overflow="visible">
   <path d="m0-0.03125h0.015625v0.015625-0.015625h0.015625l-0.015625 0.03125v0.015625h-0.015625v-0.015625h0.015625z"/>
  </symbol>
  <symbol id="i" overflow="visible">
   <path d="m0.015625-0.03125v0.015625 0.015625h0.015625v-0.015625c0-0.0078125-0.0078125-0.015625-0.015625-0.015625zm0 0h0.015625v0.015625 0.015625h-0.015625-0.015625v-0.015625-0.015625h0.015625z"/>
  </symbol>
  <symbol id="v" overflow="visible">
   <path d="m0-0.03125h0.015625v0.03125h-0.015625z"/>
  </symbol>
  <symbol id="f" overflow="visible">
   <path d="m0.03125-0.015625v0.015625h-0.015625v-0.015625 0.015625h-0.015625v-0.03125h0.015625v0.015625-0.015625c0.0078125 0 0.015625 0.0078125 0.015625 0.015625z"/>
  </symbol>
  <symbol id="h" overflow="visible">
   <path d="m0-0.03125h0.015625 0.015625v0.015625h-0.015625v0.015625h-0.015625zm0.015625 0v0.015625-0.015625z"/>
  </symbol>
  <symbol id="g" overflow="visible">
   <path d="m0.03125-0.03125v0.015625h-0.015625c0.0078125 0 0.015625 0.0078125 0.015625 0.015625h-0.015625-0.015625 0.015625v-0.015625h-0.015625l0.015625-0.015625h0.015625z"/>
  </symbol>
  <symbol id="c" overflow="visible">
   <path d="m0.015625-0.015625v0.015625-0.015625zm0-0.015625v0.015625h0.015625c0 0.011719-0.0078125 0.015625-0.015625 0.015625h-0.015625v-0.015625l0.015625-0.015625z"/>
  </symbol>
  <symbol id="u" overflow="visible">
   <path d="m0-0.03125h0.015625v0.015625-0.015625h0.015625l-0.015625 0.03125z"/>
  </symbol>
  <symbol id="t" overflow="visible">
   <path d="m0-0.03125h0.015625v0.015625-0.015625h0.015625l-0.015625 0.015625 0.015625 0.015625h-0.015625v-0.015625 0.015625h-0.015625z"/>
  </symbol>
  <symbol id="s" overflow="visible">
   <path d="m0.015625-0.03125v0.03125h-0.015625v-0.03125h0.015625z"/>
  </symbol>
  <symbol id="r" overflow="visible">
   <path d="m0.03125-0.015625v-0.015625c0.0078125 0 0.015625 0.0078125 0.015625 0.015625v0.015625h-0.015625v-0.015625 0.015625h-0.015625v-0.015625 0.015625h-0.015625v-0.03125h0.015625v0.015625-0.015625 0.015625h0.015625z"/>
  </symbol>
  <symbol id="q" overflow="visible">
   <path d="m0.03125-0.015625v0.015625h-0.015625v-0.015625 0.015625h-0.015625v-0.03125h0.015625v0.015625-0.015625c0.0078125 0 0.015625 0.0078125 0.015625 0.015625z"/>
  </symbol>
  <symbol id="p" overflow="visible">
   <path d="m0-0.03125h0.015625l0.015625 0.015625v-0.015625 0.03125l-0.015625-0.015625v0.015625h-0.015625z"/>
  </symbol>
  <symbol id="o" overflow="visible">
   <path d="m0-0.015625v-0.015625h0.015625v0.015625 0.015625-0.015625-0.015625h0.015625v0.03125h-0.015625-0.015625v-0.015625z"/>
  </symbol>
  <symbol id="n" overflow="visible">
   <path d="m0-0.03125h0.015625v0.03125h-0.015625v0.015625zm0 0h0.015625z"/>
  </symbol>
  <symbol id="m" overflow="visible">
   <path d="m0.03125-0.03125v0.015625h-0.015625v0.015625h0.015625-0.015625-0.015625v-0.015625l0.015625-0.015625h0.015625z"/>
  </symbol>
 </defs>
 <g>
  <path d="m569.41 205.81c0.36328 4.5156 0.78516 8.7734 1.2773 13.832l0.074218 0.72656c2.4648-0.09375 4.8984-0.085938 7.2891 0.019531 2.5312 0.11328 4.9766 0.32812 7.3164 0.64453 0.51172-2.5117 1.0547-4.5938 1.1094-4.7695l-0.019531-0.007813c3.7891-5.9531 2.6133-6.9258 1.6133-7.7461-4.4062-3.6406-8.2695-6.832-2.8828-15.727 5.7227-9.4531 4.6562-10.742 2.1758-13.746-2.7266-3.3047-6.3203-7.6523-9.4648-15.82-3.1445-8.168-4.9375-15.746-4.7617-23.371 0.1875-7.832 2.4258-15.465 7.3438-23.492 3.293-5.3555-3.8555-11.516-13.934-17.707-6.168-3.7891-13.188-7.3828-20.031-10.891-15.484-7.9336-30.109-15.438-33.832-24.555-7.7656-18.992-17.078-15.477-24.828-12.555-4.3672 1.6523-8.457 3.1914-12.348 3.1172 48.871 20.199 87.191 68.77 93.895 152.05zm-143.34 189.79 9.1094-5.3477 20.711 22.215v13.047l-13.758 13.578-21.195 0.63281c-1.9141 3.1445-4.8438 6.832-9.1562 11.191-0.046875 0.046875 1.9961 6.625 3.6133 12.152 1.2148 4.1523 2.2773 7.8008 2.2383 9.6797-0.98828 42.43-23.008 53.098-47.227 52.539-12.105-0.28125-24.629-3.4922-35.129-6.8125 21.402 12.051 51.27 18.434 94.414 17.695 118.03-2.0352 135.65-133.25 133.97-231.05-0.58984-34.309-3.5664-64.727-5.4883-84.289-0.59766-6.0859-1.1016-11.219-1.3242-14.027-3.8555-47.918-18.676-83.441-39.957-107.98-14.785-17.043-32.676-28.793-52.172-35.719-26.629-9.4531-56.309-10.016-85.195-2.875-6.7305 1.6602-13.41 3.7422-20 6.2266 13.152 9.5 24.676 27.168 33.395 46.957 13.039 29.586 19.984 64.297 16.586 83.141-0.24219 1.3516-0.49609 2.6211-0.74609 3.8359-0.24219 1.1562-0.51172 2.4375-0.8125 3.7539l-0.55859 2.5391c-9.4844 42.242 23.008 75.34 38.062 118.09 3.3398 9.5 5.75 18.258 6.4023 25.07 0.80078 8.2891-0.98047 14.16-6.5234 16.129h-0.019531c-1.3828 0.49609-2.9414 0.67969-4.6836 0.55078-4.4141-0.34375-8.8125 0.76562-12.461 2.8945-2.9414 1.707-5.3672 4.0586-6.8867 6.8047-1.4453 2.6055-2.0625 5.5898-1.4844 8.7344 0.57031 3.0781 2.2852 6.3672 5.4883 9.6992l0.22266 0.25391c0.19531 0.21484 0.38281 0.44922 0.57031 0.69141zm-6.2266 14.309 0.47656-3.4531 0.77344-2.0898c0.027344-1.9688-0.42969-3.5469-1.2148-4.4258-0.046875-0.054687 0.039062 0.039063-0.046875-0.046875-0.91406-0.95312-1.7344-1.9023-2.4844-2.8672-5.1523 1.2773-8.6992 5.0391-12.375 8.9492-2.5117 2.668-5.0781 5.3945-8.3438 7.6797l-0.039062 0.027344c4.8164-0.88672 8.3359-2.1367 16.211 1.4297 0.84766 0.38281 1.707 0.77344 2.4922 1.1016l0.20703-0.19531c2.0352-1.9609 3.4453-4.0508 4.3398-6.0938zm-9.1094 9.7891c-3.6016-1.6328-6.8711-3.1094-11.285-1.2891-3.0703 1.2617-6.457 1.3359-9.6602 1.0469 2.2969 3.0703 3.7969 5.8633 5.207 8.4844 2.875 5.3281 5.3398 9.8945 14.316 14.59 9.4062-10.434 6.9609-13.441 5.2734-15.512-1.9023-2.332-3.4531-4.2461-2.5391-6.7305-0.375-0.16016-0.8125-0.35547-1.3164-0.58984zm-4.9102 26.664c-9.4062-5.1875-12.113-10.211-15.262-16.043-1.9609-3.6289-4.0977-7.5977-8.4453-12.133-1.8672-1.9492-1.707-3.5859-0.17578-5.0586 1.25-1.1953 3.5469-1.6055 6.1133-2.0547 2.2031-0.39062 4.668-0.83203 5.7031-1.5508 2.8008-1.9609 5.207-4.5078 7.5508-7.0078 3.8828-4.125 7.6445-8.1094 13.207-9.9492-1.0625-2.1016-1.7734-4.1914-2.1484-6.2539-0.91406-4.9766 0.046875-9.6797 2.3164-13.766 2.1914-3.9492 5.6094-7.2891 9.6992-9.668 4.9297-2.8672 10.863-4.3789 16.848-3.9023 0.65234 0.054688 1.1758 0.007813 1.5586-0.12891 1.6055-0.57812 1.9961-3.6484 1.5508-8.2891-0.58984-6.1133-2.8477-14.27-6.0195-23.27-10.676-30.324-31.293-69.105-33.953-73.492-11.164-18.414-7.8594-33.145-4.3477-48.785l0.55859-2.5117c0.25391-1.1289 0.50391-2.3164 0.78516-3.6289 0.26172-1.2617 0.50391-2.4922 0.71094-3.6602 3.1562-17.508-3.5742-50.391-16.082-78.766-9.2305-20.945-21.504-39.219-35.039-46.527-18.742 8.1562-36.531 19.602-52.219 33.973-41.152 37.715-67.797 95.715-59.191 167.64 30.484-1 56.988 6.8398 72.742 19.926 9.4062 7.8125 15.812 17.426 18.742 28.047 2.9414 10.648 2.3711 22.242-2.1641 33.973-7.2969 18.852-24.93 38.062-54.906 54.113 9.5195 40.031 18.668 73.66 42.039 96.48 2.4375 0.64453 5.7227 1.793 9.6797 3.1719 11.453 4.0117 28.879 10.109 44.875 10.48 20.262 0.46484 38.688-8.6992 39.535-45.137 0.019531-0.72656-0.89453-3.8633-1.9414-7.4297-2.0234-6.9258-4.4414-15.184-2.3164-18.809zm-7.7188-96.629c-3.0781 0.22266-5.4336 2.4375-6.5234 5.1719-0.47656 1.1836-0.71875 2.4453-0.67969 3.6758 0.027343 1.1562 0.30859 2.2969 0.87891 3.3242 1.3516 2.4648 4.5156 4.3203 10.078 4.3203v7.5781c-8.7812 0-14.121-3.5391-16.707-8.25-1.1562-2.1094-1.7266-4.4336-1.793-6.7852-0.054688-2.2773 0.375-4.5625 1.2148-6.6719 2.1016-5.2188 6.7656-9.4453 13.012-9.9023l0.53125 7.5508zm68.48-8.1289c6.2422 0.45703 10.91 4.6836 13.012 9.9023 0.84766 2.1094 1.2773 4.3945 1.2148 6.6719-0.066406 2.3516-0.63281 4.6836-1.793 6.7852-2.5859 4.7148-7.9258 8.25-16.707 8.25v-7.5781c5.5625 0 8.7266-1.8477 10.078-4.3203 0.55859-1.0273 0.83984-2.1641 0.87891-3.3242 0.027344-1.2305-0.20703-2.5-0.67969-3.6758-1.1016-2.7344-3.4531-4.9453-6.5234-5.1719l0.53125-7.5508zm-157.59-152.12c6.4414-1.0273 12.863-1.3359 19.562-1.4922-1.4766 0.007813-2.9883 0.007813-4.5547 0.007813-5.2656 0-10.277 0.55078-15.016 1.4766zm53.668-2.875c-7.4961 1.0156-19.723 1.6523-38.648 1.6523-25.441 0-45.246 12.797-54.348 20.074-1.875 1.5039-3.293 2.7734-4.2188 3.6484-0.35547 0.42188-0.64453 0.75781-0.89453 0.98828-0.16797 0.16016-0.28125 0.25391-0.33594 0.29688-0.79297 0.55859-1.2227 0.625-0.48438-0.25391 0-0.007813 0.007813-0.019531 0.039063-0.046875 0.26953-0.31641 0.69141-0.75781 1.2969-1.3242l0.007813-0.007813c0.35547-0.42187 0.76562-0.93359 1.2305-1.5195 6.0859-7.5898 22.324-27.859 57.66-33.609 10.406-1.6875 18.684-2.3516 25.246-2.3516 9.1836 0 15.027 1.3086 18.621 2.9102 3.668 1.6445 5.0391 3.6406 5.2539 4.9453 0.019531 0.12891 0.027344 0.25391 0.027344 0.36328 0 1.6875-2.8086 3.1836-10.453 4.2266zm6.793 37.594c0.46484 0.57031 0.89453 1.1953 1.2891 1.8945 1.7188 2.9961 2.7734 7.1406 2.7734 11.703s-1.0625 8.6992-2.7734 11.703c-1.7344 3.043-4.1523 4.918-6.832 4.918-2.6797 0-5.0977-1.8867-6.832-4.918-1.7188-2.9961-2.7734-7.1406-2.7734-11.703 0-3.0508 0.47656-5.918 1.2969-8.3711l-23.773 8.9688-33.871 12.777 2.9414-1.6445c19.066-10.66 23.82-13.02 27.59-14.895 2.4648-1.2227 4.5-2.2383 9.8359-5.2188l29.176-19.797 0.10156 0.019531c3.4062 0.57031 5.5078 2.0898 6.9258 4.1445 1.4102 2.0352 2.1289 4.5742 2.8086 7.2227l0.054687 0.21484-7.9336 2.9961zm75.777-33.945c-1.8398 0.98047-4.125 0.28906-5.1055-1.5508-0.98047-1.8398-0.28906-4.125 1.5508-5.1055 24.77-13.199 70.254-15.148 94.762-0.52344 2.9688 1.7734 3.5859 2.8203 5.4219 5.9375l0.40234 0.67188c1.0625 1.8008 0.46484 4.1172-1.3359 5.1797-1.8008 1.0625-4.1172 0.46484-5.1797-1.3359l-0.40234-0.67188c-1.1094-1.8867-1.4922-2.5195-2.7891-3.293-10.668-6.3672-26.152-9.2305-41.926-9.1289-16.781 0.11328-33.723 3.5938-45.406 9.8281zm-173.09 209.73c27.168-14.906 43.121-32.312 49.664-49.223 3.9297-10.164 4.4414-20.141 1.9336-29.242-2.5195-9.1289-8.082-17.445-16.285-24.258-14.672-12.18-37.707-19.535-66.902-18.285l-0.019532-0.046874c2.2031 14.59 5.8438 29.719 11.105 45.352 8.875 26.414 14.773 51.398 20.227 74.527l0.28125 1.168zm207.75-181.09h19.629c0.1875 11.395 0.38281 22.781 0.58984 34.18h-19.879c-0.19531-11.395-0.39062-22.781-0.58984-34.18h0.25391zm117.22 4.9297c1.3906 0.50391 2.707 1.0547 3.9297 1.6602 7.1953 3.5391 11.695 8.7812 12.227 15.383 0.046874 0.54297 0.046874 1.1758 0.019531 1.8867-0.24219 5.6484-2.4922 15.801-5.1523 27.824-4.2266 19.066-9.5391 43.055-8.9492 58.164 0.26172 6.6719-10.164 14.738-18.582 21.254-2.043 1.5859-3.9492 3.0508-5.3672 4.2188-5.7305 93.109-36.289 192.65-145.36 194.52-135.07 2.3242-149.61-59.324-170.3-147.07-2.0547-8.6992-4.1641-17.66-6.4688-26.824-5.0391-2.5312-10.594-7.6523-15.969-13.766-10.137-11.508-20.43-27.059-24.156-33.152-16.941-27.746-26.152-46.73-23.605-59.621 2.5195-12.711 12.703-18.656 35.934-19.395-1.2031-65.285 25.703-118.35 64.922-154.29 25.09-22.996 55.227-38.965 86.27-46.637 1.9688-0.48438 3.9492-0.94141 5.9258-1.3633-9.9023-15.672-56.887-12.188-83.785-10.203-3.8438 0.28906-7.2891 0.54297-10.688 0.72656-42.926 2.3789-87.648 16.305-122.47 38.547-31.211 19.926-54.34 46.441-60.676 77.074-10.305 49.82-7.1133 122.04 16.902 193.27 19.152 56.832 51.559 112.91 100.91 156.29l-8.2891 9.4727c-51.203-44.988-84.766-103.02-104.56-161.76-24.742-73.414-27.98-148.11-17.293-199.79 7.0859-34.254 32.312-63.504 66.246-85.168 36.625-23.379 83.562-38.023 128.55-40.516 2.6055-0.14062 6.3281-0.42188 10.48-0.72656 16.727-1.2422 40.34-2.9883 60.332-0.30859 6.5352-1.625 14.496-4.2188 19.469-5.4492 37.426-9.2578 61.172-15.129 97.777 22.613 0.84766 0.87891 4.2578-0.40234 8.0938-1.8477 12.945-4.8828 28.484-10.754 40.906 19.609 1.9609 4.7773 14.57 11.246 27.914 18.09 7.1758 3.6758 14.559 7.4648 20.871 11.34 16.102 9.8828 26.711 21.039 18.125 35.02-3.7148 6.0469-5.3945 11.629-5.5234 17.23-0.14062 5.7852 1.3359 11.836 3.9219 18.535 2.3906 6.1992 5.2539 9.668 7.4375 12.32 6.4023 7.7461 9.1758 11.117-0.87891 27.871 4.9375 4.0781 10.613 8.9023 0.91406 24.156h-0.027344s0.007812 0.30859 0.019531 0.82031zm-215.58-193.74c6.5156 3.332 11.426 7.9531 13.812 14.281 24.723-3.3984 49.531-1.457 72.398 6.4297-0.47656-0.39062-0.95312-0.83203-1.4297-1.3164-31.266-32.246-52.191-27.449-84.785-19.395zm207.23 204.35c-3.3047-0.79297-7.0742-1.2969-11.191-1.4766-1.7812-0.074219-3.6484-0.085938-5.5898-0.027344 1.7734 19.031 3.7812 44.148 4.2578 71.969 0.1875 10.602 0.14062 21.57-0.22266 32.73 5.3125-4.1172 10.602-8.2305 10.602-8.3906-0.65234-16.707 4.8633-41.59 9.2383-61.375 2.5312-11.414 4.668-21.055 4.8633-25.602 0-0.066406 0-0.19531-0.019531-0.40234-0.14062-1.7812-2.0547-3.5391-5.1719-5.0664-1.9219-0.94141-4.1992-1.7344-6.7578-2.3516zm-341.22 119.34c-2.3633-8.3828-4.9375-16.895-7.832-25.5-7.8594-23.363-12.281-45.688-13.812-66.828-16.055 0.39062-22.934 3.2773-24.117 9.2695-1.7812 9.0078 6.6641 25.562 21.969 50.645 3.5078 5.7578 13.254 20.449 22.875 31.379 0.30859 0.34375 0.61719 0.69141 0.91406 1.0352z"/>
  <use x="70" y="560.140625" xlink:href="#w"/>
  <use x="70.035156" y="560.140625" xlink:href="#e"/>
  <use x="70.058594" y="560.140625" xlink:href="#b"/>
  <use x="70.089844" y="560.140625" xlink:href="#a"/>
  <use x="70.121094" y="560.140625" xlink:href="#d"/>
  <use x="70.144531" y="560.140625" xlink:href="#b"/>
  <use x="70.175781" y="560.140625" xlink:href="#l"/>
  <use x="70.222656" y="560.140625" xlink:href="#k"/>
  <use x="70.257812" y="560.140625" xlink:href="#j"/>
  <use x="70.304688" y="560.140625" xlink:href="#i"/>
  <use x="70.34375" y="560.140625" xlink:href="#v"/>
  <use x="70.359375" y="560.140625" xlink:href="#b"/>
  <use x="70.390625" y="560.140625" xlink:href="#f"/>
  <use x="70.425781" y="560.140625" xlink:href="#a"/>
  <use x="70.472656" y="560.140625" xlink:href="#h"/>
  <use x="70.507812" y="560.140625" xlink:href="#a"/>
  <use x="70.539062" y="560.140625" xlink:href="#f"/>
  <use x="70.570312" y="560.140625" xlink:href="#a"/>
  <use x="70.601562" y="560.140625" xlink:href="#g"/>
  <use x="70.628906" y="560.140625" xlink:href="#c"/>
  <use x="70.664062" y="560.140625" xlink:href="#u"/>
  <use x="70.691406" y="560.140625" xlink:href="#g"/>
  <use x="70.722656" y="560.140625" xlink:href="#t"/>
  <use x="70.75" y="560.140625" xlink:href="#a"/>
  <use x="70" y="560.1875" xlink:href="#s"/>
  <use x="70.019531" y="560.1875" xlink:href="#e"/>
  <use x="70.042969" y="560.1875" xlink:href="#c"/>
  <use x="70.074219" y="560.1875" xlink:href="#r"/>
  <use x="70.140625" y="560.1875" xlink:href="#d"/>
  <use x="70.164062" y="560.1875" xlink:href="#q"/>
  <use x="70.195312" y="560.1875" xlink:href="#b"/>
  <use x="70.242188" y="560.1875" xlink:href="#p"/>
  <use x="70.28125" y="560.1875" xlink:href="#c"/>
  <use x="70.316406" y="560.1875" xlink:href="#o"/>
  <use x="70.347656" y="560.1875" xlink:href="#f"/>
  <use x="70.398438" y="560.1875" xlink:href="#h"/>
  <use x="70.433594" y="560.1875" xlink:href="#e"/>
  <use x="70.453125" y="560.1875" xlink:href="#c"/>
  <use x="70.488281" y="560.1875" xlink:href="#n"/>
  <use x="70.503906" y="560.1875" xlink:href="#b"/>
  <use x="70.535156" y="560.1875" xlink:href="#m"/>
  <use x="70.5625" y="560.1875" xlink:href="#d"/>
 </g>
</svg>
